<svg xmlns="http://www.w3.org/2000/svg" viewBox="0 0 32 32" fill="none">
  <defs>
    <linearGradient id="g" x1="0%" y1="0%" x2="100%" y2="100%">
      <stop offset="0%" stop-color="#3b82f6"/>
      <stop offset="100%" stop-color="#22d3ee"/>
    </linearGradient>
  </defs>
  <rect width="32" height="32" rx="8" fill="url(#g)"/>
  <path d="M16 7a9 9 0 00-9 9 9 9 0 009 9 9 9 0 009-9 9 9 0 00-9-9zm0 2a7 7 0 017 7 7 7 0 01-7 7 7 7 0 01-7-7 7 7 0 017-7z" fill="white" opacity="0.9"/>
  <path d="M16 11a5 5 0 00-5 5 5 5 0 005 5 5 5 0 005-5 5 5 0 00-5-5zm0 2a3 3 0 013 3 3 3 0 01-3 3 3 3 0 01-3-3 3 3 0 013-3z" fill="white"/>
  <circle cx="16" cy="16" r="1.5" fill="white"/>
</svg>